<?xml version="1.0" encoding="utf-8"?>
<!-- Generator: Adobe Illustrator 22.0.0, SVG Export Plug-In . SVG Version: 6.00 Build 0)  -->
<svg version="1.1" id="Capa_1" xmlns="http://www.w3.org/2000/svg" xmlns:xlink="http://www.w3.org/1999/xlink" x="0px" y="0px"
	 viewBox="0 0 1796 597.9" style="enable-background:new 0 0 1796 597.9;" xml:space="preserve">
<style type="text/css">
	.st0{fill:url(#SVGID_1_);}
	.st1{fill:url(#SVGID_2_);}
	.st2{fill:#00AA9D;}
	.st3{fill:#FFFFFF;}
	.st4{fill:url(#SVGID_3_);}
	.st5{fill:#02335B;}
	.st6{fill:url(#SVGID_4_);}
	.st7{fill:url(#SVGID_5_);}
	.st8{fill:#00A99D;}
	.st9{fill:#1B1464;}
	.st10{fill:url(#SVGID_6_);}
	.st11{fill:url(#SVGID_7_);}
</style>
<g>
	<path class="st2" d="M729.9,395.3l-34.4-118.1l-36.6,118.1h-35.7L581,236h32.8l31.2,119.4L679.2,236h33.3l34.1,119.4L781.2,236
		h30.1l-46,159.3H729.9z"/>
	<path class="st2" d="M930,395.3v-62.9h-71.6v62.9h-31.5V236h31.5v68.3H930V236h31v159.3H930z"/>
	<path class="st2" d="M1036.9,395.3v-67.8L975.8,236h36.6l43.3,66.1l43.5-66.1h29.9l-60.7,91.5v67.8H1036.9z"/>
	<path class="st5" d="M1263.9,395.3l-104.7-139.3v139.3h-15.2V236h22.1l96.6,129V236h15.4v159.3H1263.9z"/>
	<path class="st5" d="M1378.2,399.4c-11.5,0-22-2.2-31.6-6.5c-9.6-4.3-17.9-10.3-24.8-17.9c-6.9-7.6-12.3-16.6-16.1-27
		c-3.8-10.4-5.7-21.6-5.7-33.7c0-12.8,2.1-24.3,6.4-34.6s10-19,17.3-26.1c7.3-7.1,15.8-12.6,25.6-16.4c9.7-3.8,20.1-5.7,31.1-5.7
		c11.2,0,21.4,2,30.8,5.9c9.4,3.9,17.4,9.5,24.2,16.6c6.8,7.1,12.1,15.7,15.8,25.8s5.7,21.1,5.7,33.1c0,12.4-1.9,23.8-5.8,34.3
		c-3.9,10.5-9.3,19.6-16.3,27.3c-7,7.7-15.3,13.8-24.9,18.2C1400.4,397.2,1389.8,399.4,1378.2,399.4z M1378.2,384.4
		c9.1,0,17.4-1.8,25-5.4c7.6-3.6,14.2-8.5,19.8-14.7c5.6-6.2,9.9-13.6,13.1-22.2c3.1-8.6,4.7-17.9,4.7-28c0-9.8-1.5-18.9-4.5-27.1
		c-3-8.3-7.1-15.4-12.5-21.4c-5.4-6-11.8-10.7-19.3-14.1c-7.5-3.3-15.8-5-24.9-5c-8.9,0-17.2,1.6-24.8,4.9
		c-7.6,3.3-14.2,7.9-19.9,13.8c-5.7,6-10.1,13.2-13.3,21.6c-3.2,8.5-4.8,17.9-4.8,28.1c0,10.1,1.5,19.4,4.6,27.9
		c3,8.5,7.3,15.8,12.8,21.9c5.5,6.1,12,10.9,19.4,14.4C1361.1,382.7,1369.2,384.4,1378.2,384.4z"/>
	<path class="st5" d="M1512.7,395.3V251h-54.7v-15h126.1v15h-54.9v144.4H1512.7z"/>
</g>
<linearGradient id="SVGID_1_" gradientUnits="userSpaceOnUse" x1="232.2584" y1="430.4133" x2="477.3219" y2="185.3498">
	<stop  offset="0" style="stop-color:#1B1464"/>
	<stop  offset="0.4321" style="stop-color:#10527C"/>
	<stop  offset="0.9947" style="stop-color:#00A99D"/>
</linearGradient>
<circle class="st0" cx="354.8" cy="307.9" r="173.3"/>
<g>
	<polygon class="st2" points="265.8,355.2 258.8,235.8 267.3,235.2 274.2,354.6 	"/>
</g>
<g>
	<polygon class="st3" points="406.2,386.2 398.8,382.1 461,266.5 468.4,270.5 	"/>
</g>
<g>
	<polygon class="st3" points="278.8,373.5 274.6,366.1 347.7,296.6 351.9,304 	"/>
</g>
<g>
	<polygon class="st3" points="384.7,396.9 391.7,392 354.7,298.1 347.7,303.1 	"/>
</g>
<ellipse transform="matrix(0.2158 -0.9764 0.9764 0.2158 -31.2771 449.3568)" class="st2" cx="264.1" cy="244.1" rx="19.5" ry="19.3"/>
<ellipse transform="matrix(0.2158 -0.9764 0.9764 0.2158 -146.3439 554.4857)" class="st3" cx="272" cy="368.3" rx="24.8" ry="24.5"/>
<g>
	<path class="st3" d="M347.8,317.1c-9.1-1.4-15.3-10.1-13.8-19.2c1.5-9.2,10-15.5,19.1-14.1c9.1,1.4,15.3,10.1,13.8,19.2
		S356.9,318.5,347.8,317.1z"/>
</g>
<ellipse transform="matrix(0.2158 -0.9764 0.9764 0.2158 123.4032 661.4676)" class="st3" cx="473.5" cy="253.9" rx="19.5" ry="19.3"/>
<ellipse transform="matrix(0.2158 -0.9764 0.9764 0.2158 -76.4094 695.9243)" class="st3" cx="395" cy="395.5" rx="24.8" ry="24.5"/>
</svg>
